<svg width="60" height="60" viewBox="0 0 60 60" fill="none" xmlns="http://www.w3.org/2000/svg">
<rect x="0.5" y="0.5" width="59" height="59" rx="9.5" stroke="#1B0734"/>
<path d="M11.4141 16.4062V42H9.25195V16.4062H11.4141ZM23.332 28.1836V30.0469H10.6934V28.1836H23.332ZM25.1074 16.4062V18.2695H10.6934V16.4062H25.1074ZM34.2832 37.5527L38.8711 22.9805H40.3477L39.4688 26.9004L34.6699 42H33.1934L34.2832 37.5527ZM29.5195 22.9805L33.5449 37.6406L34.4062 42H32.877L27.3574 22.9805H29.5195ZM46.0605 37.5879L49.9805 22.9805H52.1426L46.623 42H45.1113L46.0605 37.5879ZM40.6465 22.9805L45.1641 37.4297L46.3066 42H44.8301L39.9258 26.8828L39.0996 22.9805H40.6465Z" fill="#1B0734"/>
</svg>
